<?xml version="1.0" encoding="utf-8"?>
<!-- Generator: Adobe Illustrator 22.1.0, SVG Export Plug-In . SVG Version: 6.00 Build 0)  -->
<!DOCTYPE svg PUBLIC "-//W3C//DTD SVG 1.1//EN" "http://www.w3.org/Graphics/SVG/1.1/DTD/svg11.dtd">
<svg version="1.1" id="Layer_3" xmlns="http://www.w3.org/2000/svg" xmlns:xlink="http://www.w3.org/1999/xlink" x="0px" y="0px"
	 width="120px" height="32px" viewBox="0 0 120 32" style="enable-background:new 0 0 120 32;" xml:space="preserve">
<style type="text/css">
	.st0{fill:#FFFFFF;}
</style>
<g>
	<g>
		<g>
			<path class="st0" d="M75.8,5.8C75.9,5.9,76,6,76.2,6.1c0.2,0.1,0.3,0.1,0.5,0.1c0.2,0,0.3,0,0.4-0.1c0.1,0,0.2-0.1,0.2-0.2
				c0,0,0-0.1,0-0.1c0,0-0.1-0.1-0.1-0.1c-0.1,0-0.1-0.1-0.2-0.1c-0.1,0-0.2-0.1-0.4-0.1c-0.1,0-0.2-0.1-0.3-0.1
				c-0.1,0-0.2-0.1-0.3-0.2c-0.1-0.1-0.2-0.2-0.3-0.3c-0.1-0.1-0.1-0.2-0.1-0.4c0-0.2,0-0.3,0.1-0.4c0.1-0.1,0.2-0.2,0.3-0.3
				c0.1-0.1,0.3-0.1,0.4-0.2c0.2,0,0.3-0.1,0.5-0.1c0.3,0,0.5,0,0.7,0.1c0.2,0.1,0.4,0.1,0.5,0.3l-0.4,0.6c-0.1-0.1-0.2-0.1-0.3-0.2
				c-0.1-0.1-0.3-0.1-0.5-0.1c-0.2,0-0.3,0-0.4,0.1c-0.1,0.1-0.1,0.1-0.1,0.2c0,0.1,0.1,0.2,0.2,0.2c0.1,0.1,0.3,0.1,0.6,0.2
				c0.2,0,0.3,0.1,0.4,0.1c0.1,0.1,0.2,0.1,0.3,0.2c0.1,0.1,0.2,0.2,0.2,0.3c0,0.1,0.1,0.2,0.1,0.4c0,0.2,0,0.3-0.1,0.4
				c-0.1,0.1-0.2,0.2-0.3,0.3c-0.1,0.1-0.3,0.2-0.4,0.2c-0.2,0-0.3,0.1-0.5,0.1c-0.3,0-0.6,0-0.8-0.1c-0.2-0.1-0.4-0.2-0.6-0.4
				L75.8,5.8z"/>
			<path class="st0" d="M49.1,4.4l-1.4-2.2h1l0.9,1.5l0.9-1.5h0.9l-1.4,2.2l1.5,2.4h-1l-1-1.6l-1,1.6h-0.9L49.1,4.4z"/>
			<path class="st0" d="M54.8,6.3c0,0-0.1,0.1-0.1,0.1c-0.1,0.1-0.1,0.1-0.3,0.2c-0.1,0.1-0.3,0.1-0.4,0.2c-0.2,0.1-0.4,0.1-0.6,0.1
				c-0.3,0-0.5,0-0.7-0.1c-0.2-0.1-0.4-0.2-0.5-0.4C52,6.2,51.9,6,51.8,5.8c-0.1-0.2-0.1-0.4-0.1-0.7c0-0.2,0-0.5,0.1-0.7
				c0.1-0.2,0.2-0.4,0.3-0.5c0.1-0.1,0.3-0.3,0.5-0.4c0.2-0.1,0.4-0.1,0.7-0.1c0.3,0,0.5,0.1,0.7,0.2c0.2,0.1,0.4,0.2,0.5,0.4
				c0.1,0.2,0.2,0.4,0.3,0.6c0.1,0.2,0.1,0.4,0.1,0.7v0.1h-2.4c0,0.1,0,0.2,0.1,0.3c0.1,0.1,0.1,0.2,0.2,0.2C52.8,6,52.9,6.1,53,6.1
				c0.1,0,0.2,0.1,0.3,0.1c0.2,0,0.3,0,0.4,0C53.9,6.1,54,6.1,54,6c0.1,0,0.1-0.1,0.2-0.1c0.1,0,0.1-0.1,0.1-0.1L54.8,6.3z M54,4.8
				c0-0.1,0-0.2,0-0.2c0-0.1-0.1-0.2-0.1-0.2c-0.1-0.1-0.1-0.1-0.2-0.2c-0.1,0-0.2-0.1-0.3-0.1c-0.1,0-0.2,0-0.3,0.1
				c-0.1,0-0.2,0.1-0.3,0.2c-0.1,0.1-0.1,0.1-0.2,0.2c0,0.1-0.1,0.2-0.1,0.2H54z"/>
			<path class="st0" d="M55.6,2.2h0.8v1.6c0.1-0.1,0.2-0.1,0.3-0.2c0.2-0.1,0.3-0.1,0.6-0.1c0.2,0,0.4,0,0.6,0.1
				C58,3.7,58.2,3.8,58.3,4c0.1,0.1,0.2,0.3,0.3,0.5c0.1,0.2,0.1,0.4,0.1,0.6c0,0.2,0,0.5-0.1,0.7c-0.1,0.2-0.2,0.4-0.4,0.5
				c-0.2,0.2-0.3,0.3-0.6,0.4c-0.2,0.1-0.5,0.1-0.7,0.1c-0.3,0-0.5,0-0.8-0.1c-0.2,0-0.4-0.1-0.6-0.1V2.2z M56.4,6.1
				c0.1,0,0.1,0,0.2,0.1c0.1,0,0.2,0,0.3,0c0.2,0,0.3,0,0.4-0.1C57.4,6,57.5,6,57.6,5.9c0.1-0.1,0.1-0.2,0.2-0.3
				c0-0.1,0.1-0.3,0.1-0.4c0-0.1,0-0.2,0-0.4c0-0.1-0.1-0.2-0.1-0.3c-0.1-0.1-0.1-0.2-0.2-0.2c-0.1-0.1-0.2-0.1-0.3-0.1
				c-0.2,0-0.4,0.1-0.6,0.2c-0.1,0.1-0.2,0.3-0.2,0.5V6.1z"/>
			<path class="st0" d="M59.4,3.6h0.8v3.2h-0.8V3.6z"/>
			<path class="st0" d="M63,6.5c-0.1,0.1-0.2,0.2-0.4,0.3c-0.2,0.1-0.4,0.1-0.6,0.1c-0.1,0-0.3,0-0.4-0.1c-0.1,0-0.2-0.1-0.4-0.2
				c-0.1-0.1-0.2-0.2-0.3-0.3C61,6.2,60.9,6,60.9,5.8c0-0.2,0-0.3,0.1-0.5c0.1-0.1,0.2-0.3,0.3-0.4c0.1-0.1,0.3-0.2,0.4-0.2
				c0.2,0,0.4-0.1,0.6-0.1c0.1,0,0.1,0,0.2,0c0.1,0,0.2,0,0.2,0c0.1,0,0.2,0,0.3,0V4.6c0-0.2-0.1-0.3-0.2-0.4
				c-0.1-0.1-0.3-0.1-0.5-0.1c-0.2,0-0.4,0-0.5,0.1c-0.1,0.1-0.3,0.1-0.4,0.2l-0.4-0.5c0.1,0,0.1-0.1,0.2-0.1c0.1,0,0.2-0.1,0.3-0.1
				c0.1,0,0.2-0.1,0.4-0.1c0.1,0,0.3,0,0.5,0c0.2,0,0.4,0,0.6,0.1c0.2,0.1,0.3,0.1,0.4,0.2c0.1,0.1,0.2,0.2,0.3,0.4
				c0.1,0.1,0.1,0.3,0.1,0.5v2.1H63L63,6.5z M63,5.3c-0.1,0-0.2,0-0.2,0c-0.1,0-0.1,0-0.2,0c-0.1,0-0.1,0-0.2,0
				c-0.3,0-0.4,0.1-0.5,0.2c-0.1,0.1-0.2,0.2-0.2,0.3c0,0.1,0,0.2,0.1,0.3c0.1,0.1,0.2,0.1,0.4,0.1c0.1,0,0.2,0,0.3,0
				c0.1,0,0.2-0.1,0.2-0.1c0.1-0.1,0.1-0.1,0.2-0.2C63,5.8,63,5.7,63,5.6V5.3z"/>
			<path class="st0" d="M64.6,2.2h0.9V6h2.2v0.8h-3.1V2.2z"/>
			<path class="st0" d="M70.2,6.5c-0.1,0.1-0.2,0.2-0.4,0.3c-0.2,0.1-0.4,0.1-0.6,0.1c-0.1,0-0.3,0-0.4-0.1c-0.1,0-0.2-0.1-0.4-0.2
				c-0.1-0.1-0.2-0.2-0.3-0.3c-0.1-0.1-0.1-0.3-0.1-0.5c0-0.2,0-0.3,0.1-0.5c0.1-0.1,0.2-0.3,0.3-0.4c0.1-0.1,0.3-0.2,0.4-0.2
				c0.2,0,0.4-0.1,0.6-0.1c0.1,0,0.1,0,0.2,0c0.1,0,0.2,0,0.2,0c0.1,0,0.2,0,0.3,0V4.6c0-0.2-0.1-0.3-0.2-0.4
				c-0.1-0.1-0.3-0.1-0.5-0.1c-0.2,0-0.4,0-0.5,0.1c-0.1,0.1-0.3,0.1-0.4,0.2l-0.4-0.5c0.1,0,0.1-0.1,0.2-0.1c0.1,0,0.2-0.1,0.3-0.1
				c0.1,0,0.2-0.1,0.4-0.1c0.1,0,0.3,0,0.5,0c0.2,0,0.4,0,0.6,0.1c0.2,0.1,0.3,0.1,0.4,0.2c0.1,0.1,0.2,0.2,0.3,0.4
				c0.1,0.1,0.1,0.3,0.1,0.5v2.1h-0.7L70.2,6.5z M70.2,5.3c-0.1,0-0.2,0-0.2,0c-0.1,0-0.1,0-0.2,0c-0.1,0-0.1,0-0.2,0
				c-0.3,0-0.4,0.1-0.5,0.2c-0.1,0.1-0.2,0.2-0.2,0.3c0,0.1,0,0.2,0.1,0.3c0.1,0.1,0.2,0.1,0.4,0.1c0.1,0,0.2,0,0.3,0
				c0.1,0,0.2-0.1,0.2-0.1C70,6,70.1,5.9,70.1,5.9c0-0.1,0.1-0.1,0.1-0.2V5.3z"/>
			<path class="st0" d="M71.8,2.2h0.8v1.6c0.1-0.1,0.2-0.1,0.3-0.2c0.2-0.1,0.3-0.1,0.6-0.1c0.2,0,0.4,0,0.6,0.1
				c0.2,0.1,0.3,0.2,0.5,0.3c0.1,0.1,0.2,0.3,0.3,0.5c0.1,0.2,0.1,0.4,0.1,0.6c0,0.2,0,0.5-0.1,0.7c-0.1,0.2-0.2,0.4-0.4,0.5
				c-0.2,0.2-0.3,0.3-0.6,0.4c-0.2,0.1-0.5,0.1-0.7,0.1c-0.3,0-0.5,0-0.8-0.1c-0.2,0-0.4-0.1-0.6-0.1V2.2z M72.6,6.1
				c0.1,0,0.1,0,0.2,0.1c0.1,0,0.2,0,0.3,0c0.2,0,0.3,0,0.4-0.1C73.6,6,73.7,6,73.8,5.9C73.9,5.8,74,5.7,74,5.5
				c0-0.1,0.1-0.3,0.1-0.4c0-0.1,0-0.2,0-0.4c0-0.1-0.1-0.2-0.1-0.3c-0.1-0.1-0.1-0.2-0.2-0.2c-0.1-0.1-0.2-0.1-0.3-0.1
				c-0.2,0-0.4,0.1-0.6,0.2c-0.1,0.1-0.2,0.3-0.2,0.5V6.1z"/>
			<rect x="59.4" y="2.2" class="st0" width="0.9" height="0.8"/>
		</g>
	</g>
	<g>
		<path class="st0" d="M43.4,20c0.4,0.4,0.8,0.7,1.1,0.9c0.3,0.1,0.7,0.2,1.2,0.2c0.2,0,0.5,0,0.7-0.1c0.2-0.1,0.4-0.2,0.6-0.4
			c0.2-0.2,0.3-0.4,0.4-0.6c0.1-0.2,0.2-0.5,0.2-0.9v-8.8H50v9c0,0.8-0.1,1.4-0.4,1.9c-0.2,0.5-0.6,0.9-1,1.3
			c-0.4,0.3-0.8,0.5-1.3,0.7c-0.5,0.1-1,0.2-1.5,0.2c-1,0-1.8-0.2-2.4-0.5c-0.6-0.3-1.2-0.8-1.6-1.3L43.4,20z"/>
		<path class="st0" d="M52.4,10.3h8.2v2.1h-5.8v3H59v2.1h-4.3v3.3H61V23h-8.6V10.3z"/>
		<path class="st0" d="M66.8,12.4h-4.3v-2.1h11v2.1h-4.3V23h-2.4V12.4z"/>
		<path class="st0" d="M75.4,10.3h4.1c0.9,0,1.6,0.1,2.2,0.4c0.6,0.3,1,0.6,1.3,1c0.3,0.4,0.6,0.8,0.7,1.3c0.1,0.5,0.2,0.9,0.2,1.3
			c0,0.7-0.1,1.3-0.4,1.8c-0.3,0.5-0.6,0.9-1,1.2c-0.4,0.3-0.9,0.6-1.4,0.7c-0.5,0.2-1,0.2-1.5,0.2h-1.9V23h-2.3V10.3z M79.4,16.2
			c0.6,0,1.1-0.2,1.5-0.5c0.4-0.4,0.5-0.8,0.5-1.4c0-0.6-0.2-1.1-0.6-1.5c-0.4-0.4-0.9-0.6-1.4-0.6h-1.7v3.9H79.4z"/>
		<path class="st0" d="M88.3,10.3h2.5L95.6,23H93l-1.1-3.2h-4.7L86,23h-2.5L88.3,10.3z M91.2,17.8l-1.7-4.9l-1.7,4.9H91.2z"/>
		<path class="st0" d="M107.7,20.6c-0.2,0.3-0.5,0.6-0.8,0.9c-0.3,0.3-0.7,0.6-1.2,0.8c-0.5,0.3-1,0.5-1.5,0.6
			c-0.5,0.2-1.1,0.2-1.7,0.2c-1,0-1.8-0.2-2.6-0.5s-1.5-0.8-2-1.4c-0.6-0.6-1-1.3-1.3-2.1c-0.3-0.8-0.5-1.7-0.5-2.6
			c0-0.9,0.2-1.8,0.5-2.6c0.3-0.8,0.8-1.5,1.3-2.1c0.6-0.6,1.3-1.1,2.1-1.4c0.8-0.4,1.7-0.5,2.6-0.5c0.6,0,1.2,0.1,1.7,0.2
			s1,0.3,1.4,0.5c0.4,0.2,0.8,0.5,1.1,0.8c0.3,0.3,0.6,0.6,0.9,1L106,14c-0.4-0.6-0.9-1.1-1.4-1.4c-0.5-0.4-1.2-0.5-2-0.5
			c-0.6,0-1.2,0.1-1.7,0.4c-0.5,0.2-0.9,0.6-1.3,1c-0.3,0.4-0.6,0.9-0.8,1.4c-0.2,0.6-0.3,1.1-0.3,1.7c0,0.6,0.1,1.2,0.3,1.7
			c0.2,0.5,0.4,1,0.8,1.4c0.3,0.4,0.8,0.7,1.2,0.9s1,0.3,1.6,0.3c0.5,0,1-0.1,1.4-0.2c0.4-0.1,0.7-0.3,1-0.5
			c0.3-0.2,0.5-0.4,0.7-0.6c0.2-0.2,0.4-0.4,0.5-0.5L107.7,20.6z"/>
		<path class="st0" d="M109.7,10.3h2.4v5.2l4.7-5.2h2.7l-4.7,5.2L120,23h-2.9l-3.9-5.8l-1.2,1.3V23h-2.4V10.3z"/>
	</g>
	<g>
		<g>
			<path class="st0" d="M29.4,23l-1.8-2.6c-0.1-0.2-0.4-0.3-0.6-0.3h-2.8v-8.9c0-0.4-0.3-0.8-0.8-0.8h-2.6v11.4l-3.8-5.5l3.8-5.9
				h-3.3c-0.3,0-0.5,0.1-0.7,0.4L8.8,23H12c0.3,0,0.5-0.1,0.7-0.4l2.2-3.3l2.6,3.7h4.2l0,0H29.4z"/>
			<g>
				<polygon class="st0" points="12.7,10.3 8.6,10.3 12.6,16 14.6,12.9 				"/>
			</g>
		</g>
		<path class="st0" d="M29.5,0.7l-19.8,0l2.6,2.6h17.1c1.6,0,2.9,1.3,2.9,2.9v23H8.4c-1.6,0-2.9-1.3-2.9-2.9V4.8l0.9,0.9
			c0.2,0.2,0.6,0.2,0.8,0l1.1-1.1c0.2-0.2,0.2-0.6,0-0.8L4.8,0.2C4.5-0.1,4-0.1,3.7,0.2L0.2,3.8c-0.2,0.2-0.2,0.6,0,0.8l1.1,1.1
			c0.2,0.2,0.6,0.2,0.8,0l0.9-0.9v21.5c0,3,2.5,5.5,5.5,5.5H35V6.2C35,3.2,32.6,0.7,29.5,0.7z"/>
	</g>
</g>
</svg>
